<?xml version="1.0" encoding="UTF-8" standalone="no"?><svg xmlns="http://www.w3.org/2000/svg" xmlns:xlink="http://www.w3.org/1999/xlink" contentScriptType="application/ecmascript" contentStyleType="text/css" height="726px" preserveAspectRatio="none" style="width:784px;height:726px;background:#FFFFFF;" version="1.1" viewBox="0 0 784 726" width="784px" zoomAndPan="magnify"><defs><filter height="300%" id="fioa39sm8qf7o" width="300%" x="-1" y="-1"><feGaussianBlur result="blurOut" stdDeviation="2.0"/><feColorMatrix in="blurOut" result="blurOut2" type="matrix" values="0 0 0 0 0 0 0 0 0 0 0 0 0 0 0 0 0 0 .4 0"/><feOffset dx="4.0" dy="4.0" in="blurOut2" result="blurOut3"/><feBlend in="SourceGraphic" in2="blurOut3" mode="normal"/></filter></defs><g><rect fill="#DDDDDD" height="714.4321" style="stroke:#A80036;stroke-width:1.0;" width="502.5" x="119" y="6"/><text fill="#000000" font-family="sans-serif" font-size="13" font-weight="bold" lengthAdjust="spacing" textLength="63" x="338.75" y="19.897">Dockered</text><rect fill="#FFFFFF" filter="url(#fioa39sm8qf7o)" height="345.0602" style="stroke:#A80036;stroke-width:1.0;" width="10" x="134.5" y="268.304"/><rect fill="#FFFFFF" filter="url(#fioa39sm8qf7o)" height="127.8241" style="stroke:#000000;stroke-width:2.0;" width="399" x="371.5" y="109.7739"/><rect fill="#FFFFFF" filter="url(#fioa39sm8qf7o)" height="159.5301" style="stroke:#000000;stroke-width:2.0;" width="350.5" x="113" y="423.1281"/><line style="stroke:#A80036;stroke-width:1.0;stroke-dasharray:5.0,5.0;" x1="23" x2="23" y1="92.7739" y2="631.3642"/><line style="stroke:#A80036;stroke-width:1.0;stroke-dasharray:5.0,5.0;" x1="139" x2="139" y1="92.7739" y2="631.3642"/><line style="stroke:#A80036;stroke-width:1.0;stroke-dasharray:5.0,5.0;" x1="311.5" x2="311.5" y1="92.7739" y2="631.3642"/><line style="stroke:#A80036;stroke-width:1.0;stroke-dasharray:5.0,5.0;" x1="417.5" x2="417.5" y1="92.7739" y2="631.3642"/><line style="stroke:#A80036;stroke-width:1.0;stroke-dasharray:5.0,5.0;" x1="577.5" x2="577.5" y1="92.7739" y2="631.3642"/><line style="stroke:#A80036;stroke-width:1.0;stroke-dasharray:5.0,5.0;" x1="697.5" x2="697.5" y1="92.7739" y2="631.3642"/><text fill="#000000" font-family="sans-serif" font-size="14" lengthAdjust="spacing" textLength="31" x="5" y="88.672">User</text><ellipse cx="23.5" cy="16.706" fill="#FEFECE" filter="url(#fioa39sm8qf7o)" rx="8" ry="8" style="stroke:#A80036;stroke-width:2.0;"/><path d="M23.5,24.706 L23.5,51.706 M10.5,32.706 L36.5,32.706 M23.5,51.706 L10.5,66.706 M23.5,51.706 L36.5,66.706 " fill="none" filter="url(#fioa39sm8qf7o)" style="stroke:#A80036;stroke-width:2.0;"/><text fill="#000000" font-family="sans-serif" font-size="14" lengthAdjust="spacing" textLength="31" x="5" y="645.3301">User</text><ellipse cx="23.5" cy="659.4321" fill="#FEFECE" filter="url(#fioa39sm8qf7o)" rx="8" ry="8" style="stroke:#A80036;stroke-width:2.0;"/><path d="M23.5,667.4321 L23.5,694.4321 M10.5,675.4321 L36.5,675.4321 M23.5,694.4321 L10.5,709.4321 M23.5,694.4321 L36.5,709.4321 " fill="none" filter="url(#fioa39sm8qf7o)" style="stroke:#A80036;stroke-width:2.0;"/><rect fill="#FEFECE" filter="url(#fioa39sm8qf7o)" height="33.0679" style="stroke:#A80036;stroke-width:1.5;" width="29" x="123" y="54.706"/><text fill="#000000" font-family="sans-serif" font-size="14" lengthAdjust="spacing" textLength="15" x="130" y="76.672">UI</text><rect fill="#FEFECE" filter="url(#fioa39sm8qf7o)" height="33.0679" style="stroke:#A80036;stroke-width:1.5;" width="29" x="123" y="630.3642"/><text fill="#000000" font-family="sans-serif" font-size="14" lengthAdjust="spacing" textLength="15" x="130" y="652.3301">UI</text><rect fill="#FEFECE" filter="url(#fioa39sm8qf7o)" height="33.0679" style="stroke:#A80036;stroke-width:1.5;" width="36" x="291.5" y="54.706"/><text fill="#000000" font-family="sans-serif" font-size="14" lengthAdjust="spacing" textLength="22" x="298.5" y="76.672">API</text><rect fill="#FEFECE" filter="url(#fioa39sm8qf7o)" height="33.0679" style="stroke:#A80036;stroke-width:1.5;" width="36" x="291.5" y="630.3642"/><text fill="#000000" font-family="sans-serif" font-size="14" lengthAdjust="spacing" textLength="22" x="298.5" y="652.3301">API</text><text fill="#000000" font-family="sans-serif" font-size="14" lengthAdjust="spacing" textLength="66" x="381.5" y="88.672">mongoDB</text><path d="M399.5,37.706 C399.5,27.706 417.5,27.706 417.5,27.706 C417.5,27.706 435.5,27.706 435.5,37.706 L435.5,63.706 C435.5,73.706 417.5,73.706 417.5,73.706 C417.5,73.706 399.5,73.706 399.5,63.706 L399.5,37.706 " fill="#FEFECE" filter="url(#fioa39sm8qf7o)" style="stroke:#000000;stroke-width:1.5;"/><path d="M399.5,37.706 C399.5,47.706 417.5,47.706 417.5,47.706 C417.5,47.706 435.5,47.706 435.5,37.706 " fill="none" style="stroke:#000000;stroke-width:1.5;"/><text fill="#000000" font-family="sans-serif" font-size="14" lengthAdjust="spacing" textLength="66" x="381.5" y="645.3301">mongoDB</text><path d="M399.5,659.4321 C399.5,649.4321 417.5,649.4321 417.5,649.4321 C417.5,649.4321 435.5,649.4321 435.5,659.4321 L435.5,685.4321 C435.5,695.4321 417.5,695.4321 417.5,695.4321 C417.5,695.4321 399.5,695.4321 399.5,685.4321 L399.5,659.4321 " fill="#FEFECE" filter="url(#fioa39sm8qf7o)" style="stroke:#000000;stroke-width:1.5;"/><path d="M399.5,659.4321 C399.5,669.4321 417.5,669.4321 417.5,669.4321 C417.5,669.4321 435.5,669.4321 435.5,659.4321 " fill="none" style="stroke:#000000;stroke-width:1.5;"/><rect fill="#FEFECE" filter="url(#fioa39sm8qf7o)" height="33.0679" style="stroke:#A80036;stroke-width:1.5;" width="76" x="537.5" y="54.706"/><text fill="#000000" font-family="sans-serif" font-size="14" lengthAdjust="spacing" textLength="62" x="544.5" y="76.672">AI_server</text><rect fill="#FEFECE" filter="url(#fioa39sm8qf7o)" height="33.0679" style="stroke:#A80036;stroke-width:1.5;" width="76" x="537.5" y="630.3642"/><text fill="#000000" font-family="sans-serif" font-size="14" lengthAdjust="spacing" textLength="62" x="544.5" y="652.3301">AI_server</text><rect fill="#FEFECE" filter="url(#fioa39sm8qf7o)" height="33.0679" style="stroke:#A80036;stroke-width:1.5;" width="118" x="638.5" y="50.706"/><rect fill="#FEFECE" filter="url(#fioa39sm8qf7o)" height="33.0679" style="stroke:#A80036;stroke-width:1.5;" width="118" x="634.5" y="54.706"/><text fill="#000000" font-family="sans-serif" font-size="14" lengthAdjust="spacing" textLength="104" x="641.5" y="76.672">cyptoEndpoints</text><rect fill="#FEFECE" filter="url(#fioa39sm8qf7o)" height="33.0679" style="stroke:#A80036;stroke-width:1.5;" width="118" x="638.5" y="630.3642"/><rect fill="#FEFECE" filter="url(#fioa39sm8qf7o)" height="33.0679" style="stroke:#A80036;stroke-width:1.5;" width="118" x="634.5" y="634.3642"/><text fill="#000000" font-family="sans-serif" font-size="14" lengthAdjust="spacing" textLength="104" x="641.5" y="656.3301">cyptoEndpoints</text><rect fill="#FFFFFF" filter="url(#fioa39sm8qf7o)" height="345.0602" style="stroke:#A80036;stroke-width:1.0;" width="10" x="134.5" y="268.304"/><path d="M371.5,109.7739 L444.5,109.7739 L444.5,118.7739 L434.5,128.7739 L371.5,128.7739 L371.5,109.7739 " fill="#EEEEEE" style="stroke:#000000;stroke-width:1.0;"/><rect fill="none" height="127.8241" style="stroke:#000000;stroke-width:2.0;" width="399" x="371.5" y="109.7739"/><text fill="#000000" font-family="sans-serif" font-size="13" font-weight="bold" lengthAdjust="spacing" textLength="28" x="386.5" y="124.6709">loop</text><text fill="#000000" font-family="sans-serif" font-size="11" font-weight="bold" lengthAdjust="spacing" textLength="62" x="459.5" y="123.5328">[every day]</text><polygon fill="#A80036" points="588.5,149.186,578.5,153.186,588.5,157.186,584.5,153.186" style="stroke:#A80036;stroke-width:1.0;"/><polygon fill="#A80036" points="685.5,149.186,695.5,153.186,685.5,157.186,689.5,153.186" style="stroke:#A80036;stroke-width:1.0;"/><line style="stroke:#A80036;stroke-width:1.0;" x1="582.5" x2="691.5" y1="153.186" y2="153.186"/><text fill="#000000" font-family="sans-serif" font-size="13" lengthAdjust="spacing" textLength="96" x="594.5" y="147.377">fetch new prices</text><line style="stroke:#A80036;stroke-width:1.0;" x1="577.5" x2="619.5" y1="184.892" y2="184.892"/><line style="stroke:#A80036;stroke-width:1.0;" x1="619.5" x2="619.5" y1="184.892" y2="197.892"/><line style="stroke:#A80036;stroke-width:1.0;" x1="578.5" x2="619.5" y1="197.892" y2="197.892"/><polygon fill="#A80036" points="588.5,193.892,578.5,197.892,588.5,201.892,584.5,197.892" style="stroke:#A80036;stroke-width:1.0;"/><text fill="#000000" font-family="sans-serif" font-size="13" lengthAdjust="spacing" textLength="106" x="584.5" y="179.083">update AI modele</text><polygon fill="#A80036" points="428.5,225.598,418.5,229.598,428.5,233.598,424.5,229.598" style="stroke:#A80036;stroke-width:1.0;"/><line style="stroke:#A80036;stroke-width:1.0;" x1="422.5" x2="576.5" y1="229.598" y2="229.598"/><text fill="#000000" font-family="sans-serif" font-size="13" lengthAdjust="spacing" textLength="136" x="434.5" y="223.789">upload last predictions</text><polygon fill="#A80036" points="122.5,264.304,132.5,268.304,122.5,272.304,126.5,268.304" style="stroke:#A80036;stroke-width:1.0;"/><line style="stroke:#A80036;stroke-width:1.0;" x1="23.5" x2="128.5" y1="268.304" y2="268.304"/><text fill="#000000" font-family="sans-serif" font-size="13" lengthAdjust="spacing" textLength="92" x="30.5" y="262.495">open web page</text><polygon fill="#A80036" points="299.5,296.01,309.5,300.01,299.5,304.01,303.5,300.01" style="stroke:#A80036;stroke-width:1.0;"/><line style="stroke:#A80036;stroke-width:1.0;" x1="144.5" x2="305.5" y1="300.01" y2="300.01"/><text fill="#000000" font-family="sans-serif" font-size="13" lengthAdjust="spacing" textLength="134" x="151.5" y="294.201">request last prediction</text><polygon fill="#A80036" points="322.5,327.716,312.5,331.716,322.5,335.716,318.5,331.716" style="stroke:#A80036;stroke-width:1.0;"/><line style="stroke:#A80036;stroke-width:1.0;" x1="316.5" x2="416.5" y1="331.716" y2="331.716"/><text fill="#000000" font-family="sans-serif" font-size="13" lengthAdjust="spacing" textLength="82" x="328.5" y="325.907">retrieve datas</text><polygon fill="#A80036" points="155.5,359.4221,145.5,363.4221,155.5,367.4221,151.5,363.4221" style="stroke:#A80036;stroke-width:1.0;"/><line style="stroke:#A80036;stroke-width:1.0;" x1="149.5" x2="310.5" y1="363.4221" y2="363.4221"/><text fill="#000000" font-family="sans-serif" font-size="13" lengthAdjust="spacing" textLength="143" x="161.5" y="357.6131">send back desired datas</text><line style="stroke:#A80036;stroke-width:1.0;" x1="144.5" x2="186.5" y1="395.1281" y2="395.1281"/><line style="stroke:#A80036;stroke-width:1.0;" x1="186.5" x2="186.5" y1="395.1281" y2="408.1281"/><line style="stroke:#A80036;stroke-width:1.0;" x1="145.5" x2="186.5" y1="408.1281" y2="408.1281"/><polygon fill="#A80036" points="155.5,404.1281,145.5,408.1281,155.5,412.1281,151.5,408.1281" style="stroke:#A80036;stroke-width:1.0;"/><text fill="#000000" font-family="sans-serif" font-size="13" lengthAdjust="spacing" textLength="77" x="151.5" y="389.3191">create charts</text><path d="M113,423.1281 L186,423.1281 L186,432.1281 L176,442.1281 L113,442.1281 L113,423.1281 " fill="#EEEEEE" style="stroke:#000000;stroke-width:1.0;"/><rect fill="none" height="159.5301" style="stroke:#000000;stroke-width:2.0;" width="350.5" x="113" y="423.1281"/><text fill="#000000" font-family="sans-serif" font-size="13" font-weight="bold" lengthAdjust="spacing" textLength="28" x="128" y="438.0251">loop</text><text fill="#000000" font-family="sans-serif" font-size="11" font-weight="bold" lengthAdjust="spacing" textLength="82" x="201" y="436.887">[every minute]</text><polygon fill="#A80036" points="299.5,462.5401,309.5,466.5401,299.5,470.5401,303.5,466.5401" style="stroke:#A80036;stroke-width:1.0;"/><line style="stroke:#A80036;stroke-width:1.0;" x1="144.5" x2="305.5" y1="466.5401" y2="466.5401"/><text fill="#000000" font-family="sans-serif" font-size="13" lengthAdjust="spacing" textLength="134" x="151.5" y="460.7311">request last prediction</text><polygon fill="#A80036" points="322.5,494.2461,312.5,498.2461,322.5,502.2461,318.5,498.2461" style="stroke:#A80036;stroke-width:1.0;"/><line style="stroke:#A80036;stroke-width:1.0;" x1="316.5" x2="416.5" y1="498.2461" y2="498.2461"/><text fill="#000000" font-family="sans-serif" font-size="13" lengthAdjust="spacing" textLength="82" x="328.5" y="492.4371">retrieve datas</text><polygon fill="#A80036" points="155.5,525.9521,145.5,529.9521,155.5,533.9521,151.5,529.9521" style="stroke:#A80036;stroke-width:1.0;"/><line style="stroke:#A80036;stroke-width:1.0;" x1="149.5" x2="310.5" y1="529.9521" y2="529.9521"/><text fill="#000000" font-family="sans-serif" font-size="13" lengthAdjust="spacing" textLength="143" x="161.5" y="524.1431">send back desired datas</text><line style="stroke:#A80036;stroke-width:1.0;" x1="144.5" x2="186.5" y1="561.6582" y2="561.6582"/><line style="stroke:#A80036;stroke-width:1.0;" x1="186.5" x2="186.5" y1="561.6582" y2="574.6582"/><line style="stroke:#A80036;stroke-width:1.0;" x1="145.5" x2="186.5" y1="574.6582" y2="574.6582"/><polygon fill="#A80036" points="155.5,570.6582,145.5,574.6582,155.5,578.6582,151.5,574.6582" style="stroke:#A80036;stroke-width:1.0;"/><text fill="#000000" font-family="sans-serif" font-size="13" lengthAdjust="spacing" textLength="83" x="151.5" y="555.8492">update charts</text><polygon fill="#A80036" points="127.5,609.3642,137.5,613.3642,127.5,617.3642,131.5,613.3642" style="stroke:#A80036;stroke-width:1.0;"/><line style="stroke:#A80036;stroke-width:1.0;" x1="23.5" x2="133.5" y1="613.3642" y2="613.3642"/><text fill="#000000" font-family="sans-serif" font-size="13" lengthAdjust="spacing" textLength="57" x="30.5" y="607.5552">quit page</text><!--MD5=[048b60f4d661b791dff0c12d201584be]
@startuml test
actor       User           as u
box "Dockered"
participant UI             as ui
participant API            as api
database    mongoDB        as db
participant AI_server      as ai
end box
collections cyptoEndpoints as ce

loop every day
    ai <-> ce: fetch new prices
    ai -> ai: update AI modele
    ai -> db: upload last predictions
end

u -> ui: open web page
activate ui
ui -> api: request last prediction
api <- db: retrieve datas
api -> ui: send back desired datas
ui -> ui: create charts

loop every minute
    ui -> api: request last prediction
    api <- db: retrieve datas
    api -> ui: send back desired datas
    ui -> ui: update charts
end

u -> ui: quit page
deactivate ui
@enduml

PlantUML version 1.2022.0(Tue Jan 11 17:16:42 CET 2022)
(GPL source distribution)
Java Runtime: OpenJDK Runtime Environment
JVM: OpenJDK 64-Bit Server VM
Default Encoding: UTF-8
Language: en
Country: US
--></g></svg>